<svg width="44" height="16" viewBox="0 0 44 16" fill="none" xmlns="http://www.w3.org/2000/svg">
<path d="M0.80956 16L0.809977 0.599999H10.82L10.8199 3.713H3.92289L3.92281 6.672H10.0608L10.0607 9.785H3.92273L3.92264 12.887H10.8196L10.8196 16H0.80956ZM2.06359 14.746H9.76359L9.76361 14.064H2.73461L2.73476 8.564H8.99376L8.99378 7.882H2.73478L2.73493 2.459H9.76393L9.76394 1.788H2.06395L2.06359 14.746ZM15.5455 14.834H16.2275L16.2278 2.547H18.7688L22.7725 14.79H26.5125L26.5128 1.788H25.8418L25.8415 14.086H23.3005L19.2968 1.832H15.5458L15.5455 14.834ZM14.3464 16L14.3469 0.599999H20.3199L24.1255 12.843H24.5985L24.5989 0.599999H27.7119L27.7114 16H21.7384L17.9108 3.724H17.4598L17.4594 16H14.3464ZM33.9357 16L31.6698 13.734L31.6701 2.866L33.9361 0.599999H40.9321L43.1981 2.866L43.198 5.638H40.096L40.096 4.384L39.425 3.713H35.432L34.772 4.406L34.7718 12.227L35.4318 12.887H39.4248L40.0958 12.216L40.0959 10.698H37.0489L37.0489 7.596H43.1979L43.1978 13.734L40.9317 16H33.9357ZM34.5737 14.746H40.3157L41.9878 13.074L41.9879 8.839H38.2699L38.2699 9.51H41.3059L41.3058 12.788L40.0078 14.064H34.8708L33.5728 12.788L33.573 3.746L34.8711 2.459H40.0081L41.306 3.746L41.306 4.494H41.988L41.9881 3.449L40.3161 1.788H34.5741L32.9021 3.449L32.9018 13.074L34.5737 14.746Z" fill="white"/>
<path d="M0.80956 16H-0.19044L-0.190467 17H0.809533L0.80956 16ZM0.809978 0.599999L0.810005 -0.400001H-0.189995L-0.190022 0.599999H0.809978ZM10.82 0.599999H11.82L11.82 -0.400001H10.82L10.82 0.599999ZM10.8199 3.713L10.8199 4.713H11.8199L11.8199 3.713H10.8199ZM3.92289 3.713L3.92292 2.713H2.92292L2.92289 3.713H3.92289ZM3.92281 6.672H2.92281L2.92279 7.672H3.92279L3.92281 6.672ZM10.0608 6.672H11.0608L11.0608 5.672H10.0608L10.0608 6.672ZM10.0607 9.785L10.0607 10.785H11.0607L11.0607 9.785H10.0607ZM3.92273 9.785L3.92276 8.785H2.92276L2.92273 9.785H3.92273ZM3.92264 12.887H2.92264L2.92262 13.887H3.92262L3.92264 12.887ZM10.8196 12.887H11.8196L11.8197 11.887H10.8197L10.8196 12.887ZM10.8196 16L10.8195 17H11.8195L11.8196 16H10.8196ZM2.06359 14.746H1.06359L1.06357 15.746H2.06357L2.06359 14.746ZM9.76359 14.746L9.76357 15.746H10.7636L10.7636 14.746H9.76359ZM9.76361 14.064H10.7636L10.7636 13.064H9.76364L9.76361 14.064ZM2.73461 14.064H1.73461L1.73459 15.064H2.73459L2.73461 14.064ZM2.73476 8.564L2.73479 7.564H1.73479L1.73476 8.564H2.73476ZM8.99376 8.564L8.99373 9.564H9.99373L9.99376 8.564H8.99376ZM8.99378 7.882H9.99378L9.99381 6.882H8.99381L8.99378 7.882ZM2.73478 7.882H1.73478L1.73475 8.882H2.73475L2.73478 7.882ZM2.73493 2.459L2.73495 1.459H1.73495L1.73493 2.459H2.73493ZM9.76393 2.459L9.7639 3.459H10.7639L10.7639 2.459H9.76393ZM9.76394 1.788H10.7639L10.764 0.787999H9.76397L9.76394 1.788ZM2.06395 1.788L2.06397 0.787999H1.06397L1.06395 1.788H2.06395ZM1.80956 16L1.80998 0.599999H-0.190022L-0.19044 16H1.80956ZM0.80995 1.6H10.82L10.82 -0.400001H0.810005L0.80995 1.6ZM9.81998 0.599999L9.81989 3.713H11.8199L11.82 0.599999H9.81998ZM10.8199 2.713H3.92292L3.92287 4.713H10.8199L10.8199 2.713ZM2.92289 3.713L2.92281 6.672H4.92281L4.92289 3.713H2.92289ZM3.92279 7.672H10.0608L10.0608 5.672H3.92284L3.92279 7.672ZM9.06081 6.672L9.06073 9.785H11.0607L11.0608 6.672H9.06081ZM10.0608 8.785H3.92276L3.9227 10.785H10.0607L10.0608 8.785ZM2.92273 9.785L2.92264 12.887H4.92264L4.92273 9.785H2.92273ZM3.92262 13.887H10.8196L10.8197 11.887H3.92267L3.92262 13.887ZM9.81965 12.887L9.81956 16H11.8196L11.8196 12.887H9.81965ZM10.8196 15H0.809587L0.809533 17H10.8195L10.8196 15ZM2.06357 15.746H9.76357L9.76362 13.746H2.06362L2.06357 15.746ZM10.7636 14.746L10.7636 14.064H8.76361L8.76359 14.746H10.7636ZM9.76364 13.064H2.73464L2.73459 15.064H9.76358L9.76364 13.064ZM3.73461 14.064L3.73476 8.564H1.73476L1.73461 14.064H3.73461ZM2.73473 9.564H8.99373L8.99379 7.564H2.73479L2.73473 9.564ZM9.99376 8.564L9.99378 7.882H7.99378L7.99376 8.564H9.99376ZM8.99381 6.882H2.73481L2.73475 8.882H8.99375L8.99381 6.882ZM3.73478 7.882L3.73493 2.459H1.73493L1.73478 7.882H3.73478ZM2.7349 3.459H9.7639L9.76395 1.459H2.73495L2.7349 3.459ZM10.7639 2.459L10.7639 1.788H8.76394L8.76393 2.459H10.7639ZM9.76397 0.787999H2.06397L2.06392 2.788H9.76392L9.76397 0.787999ZM1.06395 1.788L1.06359 14.746H3.06359L3.06395 1.788H1.06395ZM15.5455 14.834H14.5455L14.5454 15.834H15.5454L15.5455 14.834ZM16.2275 14.834L16.2274 15.834H17.2274L17.2275 14.834H16.2275ZM16.2278 2.547L16.2278 1.547H15.2278L15.2278 2.547H16.2278ZM18.7688 2.547L19.7193 2.23616L19.4939 1.547H18.7688L18.7688 2.547ZM22.7725 14.79L21.822 15.1008L22.0474 15.79H22.7724L22.7725 14.79ZM26.5125 14.79L26.5124 15.79H27.5124L27.5125 14.79H26.5125ZM26.5128 1.788H27.5128L27.5128 0.787999H26.5128L26.5128 1.788ZM25.8418 1.788L25.8418 0.787999H24.8418L24.8418 1.788H25.8418ZM25.8415 14.086L25.8415 15.086H26.8415L26.8415 14.086H25.8415ZM23.3005 14.086L22.3499 14.3966L22.5752 15.086H23.3005L23.3005 14.086ZM19.2968 1.832L20.2474 1.52141L20.0221 0.831999H19.2968L19.2968 1.832ZM15.5458 1.832L15.5458 0.831999H14.5458L14.5458 1.832H15.5458ZM14.3464 16H13.3464L13.3464 17H14.3464L14.3464 16ZM14.3469 0.599999L14.3469 -0.400001H13.3469L13.3469 0.599999H14.3469ZM20.3199 0.599999L21.2748 0.303141L21.0562 -0.400001H20.3199L20.3199 0.599999ZM24.1255 12.843L23.1706 13.1399L23.3892 13.843H24.1255L24.1255 12.843ZM24.5985 12.843L24.5985 13.843H25.5985L25.5985 12.843H24.5985ZM24.5989 0.599999L24.5989 -0.400001H23.5989L23.5989 0.599999H24.5989ZM27.7119 0.599999H28.7119L28.7119 -0.400001H27.7119L27.7119 0.599999ZM27.7114 16L27.7114 17H28.7114L28.7114 16H27.7114ZM21.7384 16L20.7838 16.2977L21.0027 17H21.7384L21.7384 16ZM17.9108 3.724L18.8654 3.42631L18.6465 2.724H17.9108L17.9108 3.724ZM17.4598 3.724L17.4598 2.724H16.4598L16.4598 3.724H17.4598ZM17.4594 16L17.4594 17H18.4594L18.4594 16H17.4594ZM15.5454 15.834H16.2274L16.2275 13.834H15.5455L15.5454 15.834ZM17.2275 14.834L17.2278 2.547H15.2278L15.2275 14.834H17.2275ZM16.2278 3.547H18.7688L18.7688 1.547H16.2278L16.2278 3.547ZM17.8183 2.85784L21.822 15.1008L23.7229 14.4792L19.7193 2.23616L17.8183 2.85784ZM22.7724 15.79H26.5124L26.5125 13.79H22.7725L22.7724 15.79ZM27.5125 14.79L27.5128 1.788H25.5128L25.5125 14.79H27.5125ZM26.5128 0.787999H25.8418L25.8418 2.788H26.5128L26.5128 0.787999ZM24.8418 1.788L24.8415 14.086H26.8415L26.8418 1.788H24.8418ZM25.8415 13.086H23.3005L23.3005 15.086H25.8415L25.8415 13.086ZM24.251 13.7754L20.2474 1.52141L18.3463 2.14259L22.3499 14.3966L24.251 13.7754ZM19.2968 0.831999H15.5458L15.5458 2.832H19.2968L19.2968 0.831999ZM14.5458 1.832L14.5455 14.834H16.5455L16.5458 1.832H14.5458ZM15.3464 16L15.3469 0.599999H13.3469L13.3464 16H15.3464ZM14.3468 1.6H20.3198L20.3199 -0.400001H14.3469L14.3468 1.6ZM19.3649 0.896857L23.1706 13.1399L25.0804 12.5461L21.2748 0.303141L19.3649 0.896857ZM24.1255 13.843H24.5985L24.5985 11.843H24.1255L24.1255 13.843ZM25.5985 12.843L25.5989 0.599999H23.5989L23.5985 12.843H25.5985ZM24.5988 1.6H27.7118L27.7119 -0.400001H24.5989L24.5988 1.6ZM26.7119 0.599999L26.7114 16H28.7114L28.7119 0.599999H26.7119ZM27.7115 15H21.7385L21.7384 17H27.7114L27.7115 15ZM22.6931 15.7023L18.8654 3.42631L16.9561 4.02169L20.7838 16.2977L22.6931 15.7023ZM17.9108 2.724H17.4598L17.4597 4.724H17.9107L17.9108 2.724ZM16.4598 3.724L16.4594 16H18.4594L18.4598 3.724H16.4598ZM17.4595 15H14.3465L14.3464 17H17.4594L17.4595 15ZM33.9357 16L33.2286 16.7071L33.5215 17H33.9357L33.9357 16ZM31.6698 13.734H30.6698L30.6698 14.1482L30.9626 14.4411L31.6698 13.734ZM31.6701 2.866L30.963 2.15889L30.6701 2.45179L30.6701 2.866H31.6701ZM33.9361 0.599999L33.9362 -0.400001H33.5219L33.229 -0.107108L33.9361 0.599999ZM40.9321 0.599999L41.6393 -0.107108L41.3464 -0.400001H40.9322L40.9321 0.599999ZM43.1981 2.866H44.1981L44.1981 2.45179L43.9052 2.15889L43.1981 2.866ZM43.198 5.638L43.198 6.638H44.198L44.198 5.638H43.198ZM40.096 5.638H39.096L39.096 6.638H40.096L40.096 5.638ZM40.096 4.384H41.096L41.096 3.96979L40.8032 3.67689L40.096 4.384ZM39.425 3.713L40.1322 3.00589L39.8393 2.713H39.4251L39.425 3.713ZM35.432 3.713L35.4321 2.713H35.0035L34.7079 3.02334L35.432 3.713ZM34.772 4.406L34.0479 3.71634L33.772 4.006L33.772 4.406H34.772ZM34.7718 12.227H33.7718L33.7718 12.6412L34.0647 12.9341L34.7718 12.227ZM35.4318 12.887L34.7247 13.5941L35.0176 13.887H35.4318L35.4318 12.887ZM39.4248 12.887L39.4248 13.887H39.839L40.1319 13.5941L39.4248 12.887ZM40.0958 12.216L40.8029 12.9231L41.0958 12.6302L41.0958 12.216H40.0958ZM40.0959 10.698H41.0959L41.0959 9.698H40.0959L40.0959 10.698ZM37.0489 10.698H36.0489L36.0488 11.698H37.0488L37.0489 10.698ZM37.0489 7.596L37.049 6.596H36.049L36.0489 7.596H37.0489ZM43.1979 7.596H44.1979L44.198 6.596H43.198L43.1979 7.596ZM43.1978 13.734L43.9049 14.4411L44.1978 14.1482L44.1978 13.734H43.1978ZM40.9317 16L40.9317 17H41.3459L41.6388 16.7071L40.9317 16ZM34.5737 14.746L33.8666 15.4531L34.1595 15.746H34.5737L34.5737 14.746ZM40.3157 14.746L40.3157 15.746H40.7299L41.0228 15.4531L40.3157 14.746ZM41.9878 13.074L42.6949 13.7811L42.9878 13.4882L42.9878 13.074H41.9878ZM41.9879 8.839H42.9879L42.9879 7.839H41.9879L41.9879 8.839ZM38.2699 8.839L38.2699 7.839H37.2699L37.2699 8.839H38.2699ZM38.2699 9.51H37.2699L37.2699 10.51H38.2699L38.2699 9.51ZM41.3059 9.51H42.3059L42.3059 8.51H41.3059L41.3059 9.51ZM41.3058 12.788L42.0068 13.5011L42.3058 13.2072L42.3058 12.788H41.3058ZM40.0078 14.064L40.0077 15.064H40.417L40.7088 14.7771L40.0078 14.064ZM34.8708 14.064L34.1697 14.7771L34.4615 15.064H34.8707L34.8708 14.064ZM33.5728 12.788H32.5728L32.5728 13.2072L32.8717 13.5011L33.5728 12.788ZM33.573 3.746L32.869 3.03589L32.5731 3.32929L32.573 3.746H33.573ZM34.8711 2.459L34.8711 1.459H34.4594L34.167 1.74889L34.8711 2.459ZM40.0081 2.459L40.7122 1.74889L40.4198 1.459H40.0081L40.0081 2.459ZM41.306 3.746H42.306L42.3061 3.32929L42.0102 3.03589L41.306 3.746ZM41.306 4.494H40.306L40.306 5.494H41.306L41.306 4.494ZM41.988 4.494L41.988 5.494H42.988L42.988 4.494H41.988ZM41.9881 3.449H42.9881L42.9881 3.03285L42.6928 2.73956L41.9881 3.449ZM40.3161 1.788L41.0209 1.07856L40.7284 0.787999H40.3161L40.3161 1.788ZM34.5741 1.788L34.5741 0.787999H34.1618L33.8693 1.07856L34.5741 1.788ZM32.9021 3.449L32.1973 2.73956L31.9021 3.03285L31.9021 3.449H32.9021ZM32.9018 13.074H31.9018L31.9018 13.4882L32.1947 13.7811L32.9018 13.074ZM34.6428 15.2929L32.3769 13.0269L30.9626 14.4411L33.2286 16.7071L34.6428 15.2929ZM32.6698 13.734L32.6701 2.866H30.6701L30.6698 13.734H32.6698ZM32.3772 3.57311L34.6432 1.30711L33.229 -0.107108L30.963 2.15889L32.3772 3.57311ZM33.9361 1.6H40.9321L40.9322 -0.400001H33.9362L33.9361 1.6ZM40.225 1.30711L42.4909 3.57311L43.9052 2.15889L41.6393 -0.107108L40.225 1.30711ZM42.1981 2.866L42.198 5.638H44.198L44.1981 2.866H42.1981ZM43.198 4.638H40.096L40.096 6.638H43.198L43.198 4.638ZM41.096 5.638L41.096 4.384H39.096L39.096 5.638H41.096ZM40.8032 3.67689L40.1322 3.00589L38.7179 4.4201L39.3889 5.09111L40.8032 3.67689ZM39.4251 2.713H35.4321L35.432 4.713H39.425L39.4251 2.713ZM34.7079 3.02334L34.0479 3.71634L35.4961 5.09565L36.1562 4.40265L34.7079 3.02334ZM33.772 4.406L33.7718 12.227H35.7718L35.772 4.406H33.772ZM34.0647 12.9341L34.7247 13.5941L36.1389 12.1799L35.4789 11.5199L34.0647 12.9341ZM35.4318 13.887H39.4248L39.4248 11.887H35.4318L35.4318 13.887ZM40.1319 13.5941L40.8029 12.9231L39.3887 11.5089L38.7177 12.1799L40.1319 13.5941ZM41.0958 12.216L41.0959 10.698H39.0959L39.0958 12.216H41.0958ZM40.0959 9.698H37.0489L37.0488 11.698H40.0958L40.0959 9.698ZM38.0489 10.698L38.0489 7.596H36.0489L36.0489 10.698H38.0489ZM37.0489 8.596H43.1979L43.198 6.596H37.049L37.0489 8.596ZM42.1979 7.596L42.1978 13.734H44.1978L44.1979 7.596H42.1979ZM42.4907 13.0269L40.2246 15.2929L41.6388 16.7071L43.9049 14.4411L42.4907 13.0269ZM40.9317 15H33.9357L33.9357 17H40.9317L40.9317 15ZM34.5737 15.746H40.3157L40.3158 13.746H34.5738L34.5737 15.746ZM41.0228 15.4531L42.6949 13.7811L41.2807 12.3669L39.6087 14.0389L41.0228 15.4531ZM42.9878 13.074L42.9879 8.839H40.9879L40.9878 13.074H42.9878ZM41.9879 7.839H38.2699L38.2699 9.839H41.9879L41.9879 7.839ZM37.2699 8.839L37.2699 9.51H39.2699L39.2699 8.839H37.2699ZM38.2699 10.51H41.3059L41.3059 8.51H38.2699L38.2699 10.51ZM40.3059 9.51L40.3058 12.788H42.3058L42.3059 9.51H40.3059ZM40.6048 12.0749L39.3067 13.3509L40.7088 14.7771L42.0068 13.5011L40.6048 12.0749ZM40.0078 13.064H34.8708L34.8707 15.064H40.0077L40.0078 13.064ZM35.5718 13.3509L34.2739 12.0749L32.8717 13.5011L34.1697 14.7771L35.5718 13.3509ZM34.5728 12.788L34.573 3.746H32.573L32.5728 12.788H34.5728ZM34.2771 4.45611L35.5752 3.16911L34.167 1.74889L32.869 3.03589L34.2771 4.45611ZM34.8711 3.459H40.0081L40.0081 1.459H34.8711L34.8711 3.459ZM39.304 3.16911L40.6019 4.45611L42.0102 3.03589L40.7122 1.74889L39.304 3.16911ZM40.306 3.746L40.306 4.494H42.306L42.306 3.746H40.306ZM41.306 5.494H41.988L41.9881 3.494H41.3061L41.306 5.494ZM42.988 4.494L42.9881 3.449H40.9881L40.988 4.494H42.988ZM42.6928 2.73956L41.0209 1.07856L39.6113 2.49744L41.2833 4.15844L42.6928 2.73956ZM40.3161 0.787999H34.5741L34.5741 2.788H40.3161L40.3161 0.787999ZM33.8693 1.07856L32.1973 2.73956L33.6068 4.15844L35.2788 2.49744L33.8693 1.07856ZM31.9021 3.449L31.9018 13.074H33.9018L33.9021 3.449H31.9021ZM32.1947 13.7811L33.8666 15.4531L35.2809 14.0389L33.6089 12.3669L32.1947 13.7811Z" fill="black"/>
</svg>
